<svg width="32" height="32" viewBox="0 0 32 32" fill="none" xmlns="http://www.w3.org/2000/svg">
<rect width="32" height="32" fill="none"/>
<path d="M23.839 2.276C24.0819 2.02453 24.2163 1.68773 24.2132 1.33813C24.2102 0.988536 24.07 0.654119 23.8228 0.406908C23.5756 0.159698 23.2411 0.0194724 22.8916 0.0164345C22.542 0.0133966 22.2052 0.147789 21.9537 0.390667L11.0577 11.2867C9.80787 12.5369 9.10577 14.2322 9.10577 16C9.10577 17.7678 9.80787 19.4631 11.0577 20.7133L21.9537 31.6093C22.2052 31.8522 22.542 31.9866 22.8916 31.9836C23.2411 31.9805 23.5756 31.8403 23.8228 31.5931C24.07 31.3459 24.2102 31.0115 24.2132 30.6619C24.2163 30.3123 24.0819 29.9755 23.839 29.724L12.943 18.828C12.1931 18.0779 11.7719 17.0607 11.7719 16C11.7719 14.9393 12.1931 13.9221 12.943 13.172L23.839 2.276Z" fill="currentColor"/>
</svg>
