<svg width="32" height="32" viewBox="0 0 32 32" fill="none" xmlns="http://www.w3.org/2000/svg">
<rect width="32" height="32" fill="#F5F5F5"/>
<g clip-path="url(#clip0_0_1)">
<path d="M8.16099 29.724C7.91811 29.9755 7.78372 30.3123 7.78675 30.6619C7.78979 31.0115 7.93001 31.3459 8.17723 31.5931C8.42444 31.8403 8.75885 31.9805 9.10845 31.9836C9.45804 31.9866 9.79485 31.8522 10.0463 31.6093L20.9423 20.7133C22.1921 19.4631 22.8942 17.7678 22.8942 16C22.8942 14.2322 22.1921 12.5369 20.9423 11.2867L10.0463 0.390667C9.79485 0.14779 9.45804 0.0133971 9.10845 0.016435C8.75885 0.0194729 8.42444 0.159699 8.17723 0.40691C7.93001 0.654121 7.78979 0.988538 7.78675 1.33813C7.78372 1.68773 7.91811 2.02453 8.16099 2.276L19.057 13.172C19.8069 13.9221 20.2281 14.9393 20.2281 16C20.2281 17.0607 19.8069 18.0779 19.057 18.828L8.16099 29.724Z" fill="#C2C8CD"/>
</g>
<defs>
<clipPath id="clip0_0_1">
<rect width="32" height="32" fill="white" transform="matrix(-1 0 0 -1 32 32)"/>
</clipPath>
</defs>
</svg>
